<svg xmlns="http://www.w3.org/2000/svg" data-name="Layer 1" viewBox="0 0 512 512"><path fill="#ffe64e" d="M304.5,269.33929l-48.24,83.55994-.26.44006-85.83,148.66a4.99375,4.99375,0,0,1-8.57.14l-27.69-44.61a4.9825,4.9825,0,0,0-4.09-2.36011l-52.47-1.66992a5.00052,5.00052,0,0,1-4.17-7.5l75.08-130.05,59.24-102.61Z"/><path fill="#ffe64e" d="M434.65,453.49932l-52.47009,1.66992a4.98227,4.98227,0,0,0-4.08985,2.36011L350.4,502.13934a4.99375,4.99375,0,0,1-8.57-.14L256,353.33929l-.26-.44006L207.5,269.33929l97-56,59.24,102.61,75.08008,130.05005A5.00061,5.00061,0,0,1,434.65,453.49932Z"/><path fill="#ffcd85" d="M435.02738,178.86662c0,18.23391-22.3984,32.70524-27.74059,49.15823-5.53681,17.05238,3.88592,41.88867-6.4439,56.0825-10.43307,14.33571-37.03514,12.9982-51.37085,23.43127-14.19363,10.32966-21.08449,36.10013-38.13659,41.63693C294.88225,354.51789,274.23417,337.894,256,337.894c-18.2339,0-38.88169,16.624-55.33468,11.2818-17.05239-5.53681-23.94354-31.30738-38.13738-41.6372-14.33571-10.43307-40.93778-9.09557-51.37085-23.43128-10.32966-14.19363-.90685-39.0297-6.44365-56.0818-5.34234-16.45319-27.74081-30.92473-27.74081-49.1589,0-18.2339,22.3984-32.70524,27.74059-49.15822,5.53681-17.05239-3.88593-41.88867,6.44389-56.08251,10.43308-14.33571,37.03515-12.9982,51.37086-23.43127C176.7216,39.865,183.61246,14.09449,200.66456,8.55769,217.11775,3.21536,237.76583,19.83924,256,19.83924c18.23391,0,38.8817-16.624,55.33469-11.2818,17.05238,5.53681,23.94354,31.30738,38.13738,41.6372,14.33571,10.43307,40.93778,9.09557,51.37085,23.43128,10.32966,14.19363.90685,39.0297,6.44365,56.0818C412.62891,146.16091,435.02738,160.63245,435.02738,178.86662Z"/><path fill="#ffd815" d="M363.74,315.94927c-5.3,1.68006-10.26,3.67005-14.27,6.59009-14.18994,10.33-21.07995,36.1-38.12994,41.63989-16.38,5.31006-36.91-11.12988-55.08-11.28a3.4228,3.4228,0,0,0-.52,0c-18.17.15014-38.7,16.59008-55.07,11.28-17.06-5.53991-23.95-31.30993-38.14-41.63989-4.01-2.92-8.97-4.91-14.27-6.59009l59.24-102.61,48.5,28,48.5-28Z"/><path fill="#f66" d="M435.02738,178.86662c0,18.23391-22.3984,32.70524-27.74059,49.15823-5.53681,17.05238,3.88592,41.88867-6.4439,56.0825-10.43307,14.33571-37.03514,12.9982-51.37085,23.43127-14.19363,10.32966-21.08449,36.10013-38.13659,41.63693C294.88225,354.51789,274.23417,337.894,256,337.894c-18.2339,0-38.88169,16.624-55.33468,11.2818-17.05239-5.53681-23.94354-31.30738-38.13738-41.6372-14.33571-10.43307-40.93778-9.09557-51.37085-23.43128-10.32966-14.19363-.90685-39.0297-6.44365-56.0818-5.34234-16.45319-27.74081-30.92473-27.74081-49.1589,0-18.2339,22.3984-32.70524,27.74059-49.15822,5.53681-17.05239-3.88593-41.88867,6.44389-56.08251,10.43308-14.33571,37.03515-12.9982,51.37086-23.43127C176.7216,39.865,183.61246,14.09449,200.66456,8.55769,217.11775,3.21536,237.76583,19.83924,256,19.83924c18.23391,0,38.8817-16.624,55.33469-11.2818,17.05238,5.53681,23.94354,31.30738,38.13738,41.6372,14.33571,10.43307,40.93778,9.09557,51.37085,23.43128,10.32966,14.19363.90685,39.0297,6.44365,56.0818C412.62891,146.16091,435.02738,160.63245,435.02738,178.86662Z"/><path fill="#ff4e4e" d="M318.46851,239.51715h-103.212a10.37022,10.37022,0,0,1-9.61051-6.47409l-28.48611-70.26571,53.89884,28.61885a5.18512,5.18512,0,0,0,7.06935-2.26073l28.73443-57.46886,28.73442,57.46886a5.18512,5.18512,0,0,0,7.06935,2.26073l53.89884-28.61885L328.079,233.04306A10.37024,10.37024,0,0,1,318.46851,239.51715Z"/><circle cx="267.327" cy="113.499" r="18" fill="#ff4e4e"/><circle cx="367.827" cy="151.999" r="15.5" fill="#ff4e4e"/><circle cx="165.827" cy="151.999" r="15.5" fill="#ff4e4e"/><path fill="#ffe64e" d="M307.64124,239.51715h-103.212a10.37023,10.37023,0,0,1-9.61051-6.47409l-28.48611-70.26571,53.89884,28.61885a5.18512,5.18512,0,0,0,7.06935-2.26073l28.73443-57.46886,28.73442,57.46886a5.18513,5.18513,0,0,0,7.06936,2.26073l53.89883-28.61885-28.4861,70.26571A10.37023,10.37023,0,0,1,307.64124,239.51715Z"/><path fill="#ffdf1f" d="M269.76966 189.13543a5.18508 5.18508 0 0 0 7.06933 2.26074l7.1601-3.80182-27.96387-55.92773-7.5 15zM326.62329 172.92669L302.25177 233.043a10.37025 10.37025 0 0 1-9.61053 6.47412h15a10.37025 10.37025 0 0 0 9.61053-6.47412l28.48609-70.26568zM205.23145 191.39617a5.18507 5.18507 0 0 0 7.06934-2.26074l.77056-1.54108-46.7387-24.817 4.11462 10.14935z"/><path fill="#ff4e4e" d="M323.16935,278.12789H205.98576a7.5,7.5,0,0,1,0-15H323.16935a7.5,7.5,0,0,1,0,15Z"/><path fill="#ffe64e" d="M314.627,278.12774H197.44336a7.5,7.5,0,1,1,0-15H314.627a7.5,7.5,0,0,1,0,15Z"/><circle cx="256.5" cy="113.499" r="18" fill="#ffe64e"/><path fill="#ffdf1f" d="M256.5,95.49932a17.93964,17.93964,0,0,0-5.80035.97315,17.98191,17.98191,0,0,1,0,34.05371A17.99459,17.99459,0,1,0,256.5,95.49932Z"/><circle cx="357" cy="151.999" r="15.5" fill="#ffe64e"/><path fill="#ffdf1f" d="M357,136.49932a15.43763,15.43763,0,0,0-5.19336.91065,15.47915,15.47915,0,0,1,0,29.17871A15.49391,15.49391,0,1,0,357,136.49932Z"/><circle cx="155" cy="151.999" r="15.5" fill="#ffe64e"/><path fill="#ffdf1f" d="M155,136.49932a15.43956,15.43956,0,0,0-5.16363.89978,15.47966,15.47966,0,0,1,0,29.20044A15.494,15.494,0,1,0,155,136.49932Z"/></svg>